<svg xmlns="http://www.w3.org/2000/svg" viewBox="0 0 967 256" width="967" height="256">
  <defs>
    <linearGradient id="g" x1="0" y1="0" x2="1" y2="1">
      <stop offset="0" stop-color="#12B3A8"/>
      <stop offset="1" stop-color="#0A5FA8"/>
    </linearGradient>
    <linearGradient id="gb" x1="0" y1="0" x2="0" y2="1">
      <stop offset="0" stop-color="#FFC53D"/>
      <stop offset="1" stop-color="#F29D0B"/>
    </linearGradient>
  </defs>
  <rect width="256" height="256" rx="58" fill="url(#g)"/>
  <line x1="37" y1="56" x2="219" y2="56" stroke="#FFFFFF" stroke-width="8"
        stroke-linecap="round" stroke-dasharray="14 14" stroke-opacity="0.95"/>
  <rect x="34" y="150" width="22" height="58" rx="7" fill="#FFFFFF" fill-opacity="0.92"/><rect x="64" y="112" width="22" height="96" rx="7" fill="#FFFFFF" fill-opacity="0.92"/><rect x="170" y="126" width="22" height="82" rx="7" fill="#FFFFFF" fill-opacity="0.92"/><rect x="200" y="82" width="22" height="126" rx="7" fill="#FFFFFF" fill-opacity="0.92"/>
  <path d="M134.7 76 L93.2 151.5 L121.3 151.5 L111 212.2 L162.8 130.8 L133.2 130.8 L149.5 76 Z" fill="url(#gb)" stroke="url(#gb)" stroke-width="10"
        stroke-linejoin="round"/>
  <path d="M308.701171875 175.51999999999998V79.48484374999998H346.1484375Q357.10546875 79.48484374999998 364.775390625 83.64207031249998Q372.4453125 87.79929687499998 376.4736328125 95.11472656249998Q380.501953125 102.43015624999998 380.501953125 111.90476562499998Q380.501953125 121.44382812499998 376.4091796875 128.69480468749998Q372.31640625 135.94578124999998 364.5498046875 140.03855468749998Q356.783203125 144.13132812499998 345.697265625 144.13132812499998H328.359375V175.51999999999998ZM328.359375 128.27585937499998H342.5390625Q348.59765625 128.27585937499998 352.4970703125 126.18113281249998Q356.396484375 124.08640624999998 358.2978515625 120.41257812499998Q360.19921875 116.73874999999998 360.19921875 111.90476562499998Q360.19921875 107.07078124999998 358.2978515625 103.42917968749998Q356.396484375 99.78757812499998 352.46484375 97.75730468749998Q348.533203125 95.72703124999998 342.474609375 95.72703124999998H328.359375ZM423.365859375 176.93796874999998Q412.537734375 176.93796874999998 404.61 172.26511718749998Q396.682265625 167.59226562499998 392.3961328125 159.24558593749998Q388.11 150.89890624999998 388.11 139.81296874999998Q388.11 128.59812499999998 392.3961328125 120.25144531249998Q396.682265625 111.90476562499998 404.61 107.23191406249998Q412.537734375 102.55906249999998 423.365859375 102.55906249999998Q434.2584375 102.55906249999998 442.1539453125 107.23191406249998Q450.049453125 111.90476562499998 454.3355859375 120.25144531249998Q458.62171875 128.59812499999998 458.62171875 139.81296874999998Q458.62171875 150.89890624999998 454.3355859375 159.24558593749998Q450.049453125 167.59226562499998 442.1539453125 172.26511718749998Q434.2584375 176.93796874999998 423.365859375 176.93796874999998ZM423.365859375 161.72703124999998Q428.522109375 161.72703124999998 432.002578125 158.85886718749998Q435.483046875 155.99070312499998 437.22328125 150.99558593749998Q438.963515625 146.00046874999998 438.963515625 139.74851562499998Q438.963515625 133.36765624999998 437.22328125 128.40476562499998Q435.483046875 123.44187499999998 432.002578125 120.60593749999998Q428.522109375 117.76999999999998 423.365859375 117.76999999999998Q418.209609375 117.76999999999998 414.7613671875 120.60593749999998Q411.313125 123.44187499999998 409.572890625 128.40476562499998Q407.83265625 133.36765624999998 407.83265625 139.74851562499998Q407.83265625 146.00046874999998 409.572890625 150.99558593749998Q411.313125 155.99070312499998 414.7613671875 158.85886718749998Q418.209609375 161.72703124999998 423.365859375 161.72703124999998ZM484.47 175.51999999999998 463.20046875 103.46140624999998H483.503203125L489.75515625 130.08054687499998Q491.366484375 137.23484374999998 493.235625 145.61374999999998Q494.5246875 151.35007812499998 495.620390625 157.79539062499998Q496.780546875 151.47898437499998 498.1340625 145.80710937499998Q500.132109375 137.36374999999998 501.87234375 130.08054687499998L508.4465625 103.46140624999998H526.235625L532.6809375 130.08054687499998Q534.292265625 137.36374999999998 536.2903125 145.74265624999998Q537.643828125 151.47898437499998 538.8684375 157.85984374999998Q539.964140625 151.47898437499998 541.18875 145.80710937499998Q542.928984375 137.42820312499998 544.604765625 130.08054687499998L550.85671875 103.46140624999998H571.417265625L550.018828125 175.51999999999998H530.360625L522.3684375 147.74070312499998Q521.20828125 143.55124999999998 520.048125 138.49167968749998Q518.88796875 133.43210937499998 517.792265625 128.14695312499998Q517.534453125 126.92234374999998 517.276640625 125.69773437499998Q517.018828125 126.92234374999998 516.761015625 128.14695312499998Q515.600859375 133.43210937499998 514.440703125 138.52390624999998Q513.280546875 143.61570312499998 512.120390625 147.74070312499998L504.128203125 175.51999999999998ZM611.5741406249999 176.93796874999998Q600.5526562499999 176.93796874999998 592.5604687499999 172.42624999999998Q584.5682812499999 167.91453124999998 580.2821484374999 159.60007812499998Q575.9960156249999 151.28562499999998 575.9960156249999 139.87742187499998Q575.9960156249999 128.72703124999998 580.2499218749999 120.34812499999998Q584.5038281249999 111.96921874999998 592.3026562499999 107.26414062499998Q600.1014843749999 102.55906249999998 610.6073437499999 102.55906249999998Q617.6971874999999 102.55906249999998 623.8202343749999 104.81492187499998Q629.9432812499999 107.07078124999998 634.5839062499999 111.61472656249998Q639.2245312499999 116.15867187499998 641.8348828124999 122.99070312499998Q644.4452343749999 129.82273437499998 644.4452343749999 139.10398437499998V144.51804687499998H595.1385937499999Q595.3319531249999 149.99656249999998 597.2655468749999 153.86374999999998Q599.3280468749999 158.11765624999998 603.0985546874999 160.24460937499998Q606.8690624999999 162.37156249999998 611.8964062499999 162.37156249999998Q615.3124218749999 162.37156249999998 618.0839062499999 161.40476562499998Q620.8553906249999 160.43796874999998 622.8212109374999 158.53660156249998Q624.7870312499999 156.63523437499998 625.8182812499999 153.86374999999998L643.3495312499999 157.15085937499998Q641.6092968749999 163.08054687499998 637.2909374999999 167.56003906249998Q632.9725781249999 172.03953124999998 626.4950390624999 174.48874999999998Q620.0174999999999 176.93796874999998 611.5741406249999 176.93796874999998ZM595.2674999999999 132.40085937499998H625.8182812499999Q625.4315624999999 128.79148437499998 624.2714062499999 125.82664062499998Q622.5311718749999 121.70164062499998 619.1473828124999 119.41355468749998Q615.7635937499999 117.12546874999998 610.8007031249999 117.12546874999998Q605.7733593749999 117.12546874999998 602.2606640624999 119.44578124999998Q598.7479687499999 121.76609374999998 596.9432812499999 125.69773437499998Q595.5897656249999 128.72703124999998 595.2674999999999 132.40085937499998ZM655.018125 175.51999999999998V103.46140624999998H673.70953125V116.02976562499998H674.48296875Q676.481015625 109.32664062499998 681.1538671875 105.91062499999998Q685.82671875 102.49460937499998 691.8853125 102.49460937499998Q693.367734375 102.49460937499998 695.10796875 102.65574218749998Q696.848203125 102.81687499999998 698.137265625 103.13914062499998V120.41257812499998Q696.848203125 119.96140624999998 694.398984375 119.70359374999998Q691.949765625 119.44578124999998 689.758359375 119.44578124999998Q685.375546875 119.44578124999998 681.830625 121.34714843749998Q678.285703125 123.24851562499998 676.3198828125 126.63230468749998Q674.3540625 130.01609374999998 674.3540625 134.52781249999998V175.51999999999998Z" fill="#FFFFFF"/>
  <path d="M713.48359375 175.51999999999998V79.48484374999998H746.3546875Q757.56953125 79.48484374999998 764.8205078125 83.57761718749998Q772.071484375 87.67039062499998 775.5841796875 94.56687499999998Q779.096875 101.46335937499998 779.096875 110.03562499999998Q779.096875 118.60789062499998 775.5841796875 125.56882812499998Q772.071484375 132.52976562499998 764.852734375 136.65476562499998Q757.633984375 140.77976562499998 746.419140625 140.77976562499998H725.7296875V175.51999999999998ZM725.7296875 130.01609374999998H745.8390625Q753.44453125 130.01609374999998 758.08515625 127.40574218749998Q762.72578125 124.79539062499998 764.8205078125 120.25144531249998Q766.915234375 115.70749999999998 766.915234375 110.03562499999998Q766.915234375 104.36374999999998 764.8205078125 99.88425781249998Q762.72578125 95.40476562499998 758.0529296875 92.82664062499998Q753.380078125 90.24851562499998 745.71015625 90.24851562499998H725.7296875ZM805.331875 79.48484374999998V175.51999999999998H793.7303125V79.48484374999998ZM843.232890625 177.19578124999998Q836.400859375 177.19578124999998 830.8256640625 174.61765624999998Q825.25046875 172.03953124999998 821.963359375 167.07664062499998Q818.67625 162.11374999999998 818.67625 155.02390624999998Q818.67625 148.83640624999998 821.12546875 144.96921874999998Q823.5746875 141.10203124999998 827.6674609375 138.87839843749998Q831.760234375 136.65476562499998 836.723125 135.55906249999998Q841.686015625 134.46335937499998 846.713359375 133.81882812499998Q853.158671875 132.98093749999998 857.21921875 132.52976562499998Q861.279765625 132.07859374999998 863.2455859375 130.98289062499998Q865.21140625 129.88718749999998 865.21140625 127.24460937499998V126.85789062499998Q865.21140625 122.34617187499998 863.535625 119.22019531249998Q861.85984375 116.09421874999998 858.50828125 114.41843749999998Q855.15671875 112.74265624999998 850.129375 112.74265624999998Q844.973125 112.74265624999998 841.299296875 114.35398437499998Q837.62546875 115.96531249999998 835.3373828125 118.38230468749998Q833.049296875 120.79929687499998 831.889140625 123.31296874999998L820.73875 119.63914062499998Q823.510234375 113.06492187499998 828.2153125 109.35886718749998Q832.920390625 105.65281249999998 838.592265625 104.10593749999998Q844.264140625 102.55906249999998 849.807109375 102.55906249999998Q853.416484375 102.55906249999998 858.0248828125 103.42917968749998Q862.63328125 104.29929687499998 866.9194140625 106.87742187499998Q871.205546875 109.45554687499998 874.0092578125 114.51511718749998Q876.81296875 119.57468749999998 876.81296875 128.01804687499998V175.51999999999998H865.404765625V165.72312499999998H864.631328125Q863.40671875 168.23679687499998 860.6996875 170.91160156249998Q857.99265625 173.58640624999998 853.674296875 175.39109374999998Q849.3559375 177.19578124999998 843.232890625 177.19578124999998ZM845.2309375 166.94773437499998Q851.67625 166.94773437499998 856.123515625 164.43406249999998Q860.57078125 161.92039062499998 862.89109375 157.89207031249998Q865.21140625 153.86374999999998 865.21140625 149.48093749999998V139.49070312499998Q864.502421875 140.32859374999998 862.11765625 141.00535156249998Q859.732890625 141.68210937499998 856.6713671875 142.19773437499998Q853.60984375 142.71335937499998 850.7416796875 143.06785156249998Q847.873515625 143.42234374999998 846.197734375 143.61570312499998Q842.00828125 144.13132812499998 838.3666796875 145.38816406249998Q834.725078125 146.64499999999998 832.533671875 149.06199218749998Q830.342265625 151.47898437499998 830.342265625 155.60398437499998Q830.342265625 159.34226562499998 832.275859375 161.85593749999998Q834.209453125 164.36960937499998 837.561015625 165.65867187499998Q840.912578125 166.94773437499998 845.2309375 166.94773437499998ZM906.1417187499999 132.33640624999998V175.51999999999998H894.5401562499999V103.46140624999998H905.6905468749999L905.7549999999999 116.80320312499998Q908.7842968749999 110.03562499999998 913.5538281249999 106.74851562499998Q919.6124218749999 102.55906249999998 927.7979687499999 102.55906249999998Q935.0811718749999 102.55906249999998 940.5596874999999 105.55613281249998Q946.0382031249999 108.55320312499998 949.0997265624999 114.57957031249998Q952.1612499999999 120.60593749999998 952.1612499999999 129.75828124999998V175.51999999999998H940.5596874999999V130.72507812499998Q940.5596874999999 122.41062499999998 936.2091015624999 117.70554687499998Q931.8585156249999 113.00046874999998 924.3174999999999 113.00046874999998Q919.1612499999999 113.00046874999998 915.0362499999999 115.25632812499998Q910.9112499999999 117.51218749999998 908.5264843749999 121.83054687499998Q906.1417187499999 126.14890624999998 906.1417187499999 132.33640624999998Z" fill="#5EE0D2"/>
</svg>
